# xmcd
#
# Track frame offsets:
#	150
#	23650
#	42267
#	60089
#	75979
#	91993
#	105446
#	121359
#	138453
#	151750
#	170080
#	184960
#	201741
#	220537
#	231995
#	247003
#	261420
#	276617
#	295399
#
# Disc length: 4072 seconds
#
# Revision: 2
# Processed by: cddbd v1.5.2PL0 Copyright (c) Steve Scherf et al.
# Submitted via: audiograbber 1.83.01
#
DISCID=160fe613
DTITLE=Various Artist - Award Winning Country - Volume 10
DYEAR=2011
DGENRE=Country
TTITLE0=Brad Paisley - This Is Country Music
TTITLE1=Sugarland - Stuck Like Glue
TTITLE2=Miranda Lambert - The House That Built Me
TTITLE3=Kasey Chambers - Little Bird
TTITLE4=The McClymonts - Hearts On Fire
TTITLE5=Adam Brand - It's Gonna Be OK
TTITLE6=Lee Kernaghan - Cowgirl
TTITLE7=Eric Church - Homeboy
TTITLE8=Doc Walker - I'm Gonna Make You Love Me
TTITLE9=McAlistewr Kemp - All Kinds Of Tough
TTITLE10=Victoria Banks - Come On
TTITLE11=The Band Perry - If I Die Young
TTITLE12=Graeme Connors - All The Money's Gone
TTITLE13=Gord Bamford - Day Job
TTITLE14=Sara Storer - Calling Me Home
TTITLE15=Kasey Chambers ft. Kevin Bennett - Love Like A Hurricane
TTITLE16=The Sunny Cowgirls - Summer
TTITLE17=Luke Austen - Sacred Bones
TTITLE18=Ian Simpson and John Kane - Dixie Breakdown
EXTD=
EXTT0=
EXTT1=
EXTT2=
EXTT3=
EXTT4=
EXTT5=
EXTT6=
EXTT7=
EXTT8=
EXTT9=
EXTT10=
EXTT11=
EXTT12=
EXTT13=
EXTT14=
EXTT15=
EXTT16=
EXTT17=
EXTT18=
PLAYORDER=
